<svg viewBox="0 0 1024 1024" xmlns="http://www.w3.org/2000/svg">
  <!-- Blue curved shape (left) -->
  <path d="M 289 194 Q 289 194 289 320 L 289 545 Q 289 636 352 698 Q 415 760 506 760 L 506 760 Q 597 760 660 698 Q 723 636 723 545 L 723 471 Q 723 392 688 330 Q 653 268 600 234 Q 547 200 489 194 L 289 194 Z" fill="#015989"/>

  <!-- Teal curved shape (right) -->
  <path d="M 600 330 Q 653 268 700 400 Q 747 532 700 650 Q 653 768 550 830 L 750 830 Q 850 830 920 760 Q 990 690 990 590 L 990 380 Q 990 280 920 210 Q 850 140 750 140 L 550 140 Q 580 200 600 330 Z" fill="#0aaeb0"/>
</svg>